<svg width="484" height="98" viewBox="0 0 484 98" fill="none" xmlns="http://www.w3.org/2000/svg">
<path d="M93.8575 46.8711H59.9264L55.3186 57.8786H80.6318C79.5797 67.0935 76.2519 74.1467 70.6772 79.067C70.3648 79.3228 70.0803 79.6074 69.7391 79.8641C73.4933 81.7124 77.646 82.7933 82.0824 83.1344C84.5286 80.3758 86.605 77.2464 88.3402 73.8055C92.0657 66.4104 93.9149 58.1058 93.9149 48.8622L93.8575 46.8711ZM58.4758 93.9705C54.6929 91.8949 51.3086 89.3913 48.2941 86.4621H48.1227C41.5533 86.4621 35.4948 84.8688 30.0054 81.7124C24.5448 78.47 20.3355 74.0614 17.3497 68.4023C14.3622 62.7702 12.8559 56.4845 12.8559 49.5732C12.8559 42.4626 14.4762 36.0629 17.69 30.3751C20.9325 24.5724 25.341 20.0794 30.9731 16.8083C36.0065 13.9069 41.5246 12.2857 47.4979 12.0011C50.6829 8.81609 54.3239 6.05747 58.4192 3.78184C59.6419 3.09957 60.8654 2.50174 62.1447 1.93262C58.1347 0.994499 53.9541 0.510666 49.5455 0.510666C40.3585 0.510666 31.9112 2.64445 24.2323 6.91031C16.5526 11.2049 10.6089 17.1215 6.34222 24.6012C2.10422 32.1103 0 40.4149 0 49.5732C0 59.4703 2.27563 68.0882 6.82606 75.4555C11.1206 82.4513 16.9512 87.9407 24.2323 91.8949C31.5414 95.8771 39.5057 97.8386 48.1227 97.8386C53.2422 97.8386 58.0207 97.2138 62.3727 95.8771C61.036 95.308 59.7559 94.6823 58.4758 93.9705Z" fill="#FA8503"/>
<path d="M66.4115 16.3255C71.9574 13.1683 78.2152 11.6045 85.1831 11.6045C88.1976 11.6045 91.0989 11.9456 93.915 12.5992V0.711014C91.0702 0.22802 88.1698 3.8147e-05 85.1831 3.8147e-05C75.7969 3.8147e-05 67.3496 2.10426 59.8126 6.25698C52.2189 10.495 46.3597 16.3255 42.1791 23.7485C37.9977 31.2003 35.9222 39.5623 35.9222 48.8633C35.9222 58.1347 38.0264 66.5254 42.2357 74.0337C46.4737 81.5142 52.3329 87.3447 59.8413 91.4687C67.3496 95.6214 75.7969 97.6978 85.1831 97.6978C88.1976 97.6978 91.0989 97.4698 93.915 96.9868V85.0978C91.1277 85.78 88.2263 86.122 85.1831 86.122C78.2718 86.122 72.0427 84.5286 66.4968 81.3436C60.8934 78.1298 56.5709 73.6647 53.4703 67.9752C50.3984 62.2874 48.8625 55.9165 48.8625 48.8633C48.8625 41.6386 50.4271 35.239 53.5556 29.6643C56.5988 23.9191 60.8655 19.4827 66.4115 16.3255Z" fill="#023047"/>
<path d="M109.415 42.5997H141.174L141.2 54.4035H109.415V97.3484H96.7578V0.364128H155.211L155.279 12.1679H109.415V42.5997Z" fill="#FA8503"/>
<path d="M180.702 43.1765C177.199 41.1812 174.414 38.4327 172.343 34.9319C170.271 31.4268 169.236 27.5215 169.236 23.2075C169.236 18.9906 170.282 15.1259 172.371 11.6132C174.461 8.10052 177.281 5.33176 180.83 3.29509C184.38 1.26687 188.227 0.248531 192.367 0.248531C195 0.248531 197.577 0.681705 200.096 1.55312C202.615 2.41946 204.877 3.59739 206.881 5.08604L206.996 10.068C204.934 8.36988 202.658 7.04926 200.168 6.10016C197.677 5.16035 195.076 4.68581 192.367 4.68581C189.047 4.68581 185.983 5.49557 183.178 7.1185C180.372 8.74226 178.15 10.963 176.507 13.7892C174.866 16.6145 174.046 19.7514 174.046 23.2075C174.046 26.6788 174.847 29.8242 176.45 32.6419C178.054 35.4554 180.244 37.6677 183.02 39.283C185.797 40.8941 188.874 41.6997 192.253 41.6997C194.314 41.6997 196.213 41.459 197.949 40.9684C199.685 40.4854 201.585 39.6959 203.646 38.6084V24.5813H208.083V41.3281C205.278 43.0254 202.63 44.2565 200.139 45.0207C197.648 45.7857 194.983 46.1665 192.138 46.1665C188.016 46.1665 184.204 45.1684 180.702 43.1765Z" fill="#FA8503"/>
<path d="M220.726 21.8618H227.654C229.429 21.8415 230.989 21.5224 232.335 20.9051C233.68 20.2828 234.725 19.3709 235.469 18.1684C236.213 16.9669 236.585 15.5272 236.585 13.846C236.585 12.1657 236.209 10.7133 235.455 9.47797C234.7 8.25191 233.647 7.30281 232.292 6.64841C230.936 5.98641 229.372 5.65878 227.597 5.65878H220.726V21.8618ZM238.36 45.1071L225.851 25.8406H220.726V45.1071H215.831V1.39376H227.711C230.402 1.39376 232.774 1.90462 234.825 2.92718C236.876 3.94551 238.464 5.40125 239.591 7.29099C240.718 9.17989 241.28 11.3922 241.28 13.9321C241.28 17.1957 240.354 19.8336 238.504 21.8449C236.653 23.8613 234.113 25.1169 230.889 25.6117L243.714 45.1071H238.36Z" fill="#FA8503"/>
<path d="M272.987 29.4192L265.401 11.3273L257.814 29.4192H272.987ZM274.676 33.4267H256.154L251.259 45.1072H245.82L265.114 0.0192223H265.658L285.01 45.1072H279.571L274.676 33.4267Z" fill="#FA8503"/>
<path d="M300.974 40.5835C304.677 40.5835 307.84 39.8928 310.463 38.5063C313.087 37.1241 315.083 35.1406 316.446 32.5517C317.81 29.967 318.493 26.9002 318.493 23.3503C318.493 19.8579 317.84 16.8029 316.532 14.1895C315.226 11.5762 313.259 9.54371 310.635 8.0922C308.012 6.64069 304.791 5.9162 300.974 5.9162H295.792V40.5835H300.974ZM290.897 1.39364H301.089C305.479 1.39364 309.351 2.25239 312.711 3.96988C316.071 5.68737 318.684 8.18592 320.554 11.4698C322.425 14.7544 323.36 18.664 323.36 23.2068C323.36 27.6162 322.496 31.4641 320.769 34.7606C319.041 38.0487 316.518 40.6004 313.198 42.399C309.877 44.2077 305.88 45.1069 301.203 45.1069H290.897V1.39364Z" fill="#FA8503"/>
<path d="M180.258 94.4362C176.862 92.424 174.174 89.6713 172.2 86.1797C170.224 82.6873 169.236 78.8014 169.236 74.528C169.236 70.2545 170.224 66.3652 172.2 62.8644C174.174 59.3602 176.88 56.6032 180.315 54.5877C183.75 52.5755 187.547 51.569 191.709 51.569C193.712 51.569 195.863 51.9414 198.164 52.6861C200.464 53.43 202.433 54.3825 204.076 55.5486V60.5584C202.568 59.2783 200.668 58.2152 198.378 57.3691C196.089 56.518 193.894 56.0924 191.795 56.0924C188.492 56.0924 185.496 56.8979 182.805 58.5133C180.115 60.1244 177.992 62.3367 176.436 65.1544C174.88 67.9687 174.103 71.093 174.103 74.528C174.103 77.963 174.88 81.0838 176.436 83.8897C177.992 86.6948 180.119 88.9029 182.82 90.5182C185.521 92.1301 188.513 92.9357 191.795 92.9357C193.913 92.9357 196.156 92.489 198.522 91.6058C200.888 90.7149 202.826 89.5944 204.333 88.24L204.247 93.4221C202.548 94.6034 200.526 95.5736 198.178 96.3251C195.831 97.0825 193.616 97.4583 191.536 97.4583C187.415 97.4583 183.654 96.4526 180.258 94.4362Z" fill="#023047"/>
<path d="M235.438 80.7116L227.852 62.6196L220.266 80.7116H235.438ZM237.127 84.7191H218.605L213.71 96.3995H208.272L227.566 51.3115H228.11L247.461 96.3995H242.023L237.127 84.7191Z" fill="#023047"/>
<path d="M264.628 73.3834C266.575 73.3834 268.259 73.0481 269.68 72.3811C271.102 71.714 272.195 70.7658 272.958 69.5313C273.721 68.3035 274.104 66.836 274.104 65.1387C274.104 63.4576 273.721 62.006 272.958 60.7707C272.195 59.5438 271.097 58.5947 269.666 57.9411C268.234 57.2791 266.535 56.9515 264.57 56.9515H258.243V73.3834H264.628ZM253.349 52.6857H264.743C267.565 52.6857 270.038 53.1889 272.156 54.187C274.275 55.1927 275.911 56.6323 277.066 58.5136C278.222 60.3907 278.797 62.5997 278.797 65.1387C278.797 67.6947 278.226 69.9155 277.08 71.7968C275.936 73.6738 274.308 75.1178 272.199 76.115C270.092 77.1215 267.634 77.6205 264.828 77.6205H258.243V96.3998H253.349V52.6857Z" fill="#023047"/>
<path d="M298.413 52.6858H321.115V57.1231H303.309V72.0089H319.397V76.1599H303.309V96.4H298.413V52.6858Z" fill="#023047"/>
<path d="M326.628 52.6855H331.522V96.3997H326.628V52.6855Z" fill="#023047"/>
<path d="M377.716 97.8591L345.511 64.0227V96.3992H340.615V51.4835L372.85 85.5496V52.6859H377.716V97.8591Z" fill="#023047"/>
<path d="M396.856 91.8758C400.558 91.8758 403.722 91.1851 406.345 89.7986C408.969 88.4163 410.965 86.4328 412.328 83.8439C413.692 81.2601 414.375 78.1924 414.375 74.6426C414.375 71.1502 413.721 68.0952 412.415 65.4818C411.107 62.8684 409.141 60.8359 406.517 59.3844C403.894 57.9329 400.673 57.2084 396.856 57.2084H391.674V91.8758H396.856ZM386.779 52.6859H396.97C401.36 52.6859 405.233 53.5446 408.592 55.2621C411.952 56.9796 414.566 59.479 416.436 62.762C418.307 66.0467 419.242 69.9562 419.242 74.4999C419.242 78.9084 418.379 82.7563 416.651 86.0528C414.922 89.3409 412.399 91.8927 409.079 93.6912C405.758 95.4999 401.761 96.3992 397.085 96.3992H386.779V52.6859Z" fill="#023047"/>
<path d="M425.987 52.6858H449.175V57.1231H430.854V71.7227H447.572V75.8737H430.854V91.9627H449.461V96.4H425.987V52.6858Z" fill="#023047"/>
<path d="M461.012 73.154H467.941C469.715 73.1338 471.278 72.8146 472.623 72.1973C473.969 71.5759 475.011 70.6639 475.755 69.4615C476.5 68.2591 476.872 66.8194 476.872 65.1391C476.872 63.4579 476.496 62.0064 475.743 60.771C474.987 59.5441 473.936 58.5951 472.578 57.9406C471.224 57.2786 469.658 56.9519 467.883 56.9519H461.012V73.154ZM478.647 96.3993L466.137 77.1337H461.012V96.3993H456.117V52.686H467.997C470.688 52.686 473.061 53.1969 475.114 54.2194C477.162 55.2378 478.754 56.6935 479.878 58.5832C481.007 60.4721 481.567 62.6853 481.567 65.2244C481.567 68.4879 480.643 71.1258 478.79 73.1372C476.941 75.1536 474.402 76.4092 471.175 76.904L484 96.3993H478.647Z" fill="#023047"/>
</svg>
