<svg xmlns="http://www.w3.org/2000/svg" width="128" height="128" viewBox="0 0 128 128">
  <title>START</title>
  <g>
    <g>
      <rect x="19" y="19" width="90" height="34.192" fill="#fd3a69"/>
      <path d="M22,102.278h9.012a3,3,0,0,1,3,3V109a0,0,0,0,1,0,0H19a0,0,0,0,1,0,0v-3.72A3,3,0,0,1,22,102.278Z" fill="#fc852d"/>
      <rect x="23.331" y="53.192" width="6.355" height="49.086" fill="#fecd1a"/>
      <path d="M96.986,102.278H106a3,3,0,0,1,3,3V109a0,0,0,0,1,0,0H93.984a0,0,0,0,1,0,0v-3.72A3,3,0,0,1,96.986,102.278Z" fill="#fc852d"/>
      <rect x="98.315" y="53.192" width="6.355" height="49.086" fill="#fecd1a"/>
      <g>
        <path d="M65.9,27.873a1.75,1.75,0,0,0-3.293,0L57.12,43.134a1.75,1.75,0,1,0,3.293,1.184l.725-2.014h6.235l.725,2.014a1.75,1.75,0,1,0,3.293-1.184ZM62.4,38.8l1.858-5.168L66.114,38.8Z" fill="#fff8cd"/>
        <path d="M32.439,30.216h6.393a1.75,1.75,0,0,0,0-3.5H32.439a5.012,5.012,0,0,0-2.167,9.532L36.224,39.1a1.512,1.512,0,0,1-.654,2.875H29.177a1.75,1.75,0,1,0,0,3.5H35.57a5.012,5.012,0,0,0,2.166-9.532l-5.951-2.853a1.512,1.512,0,0,1,.654-2.875Z" fill="#fff8cd"/>
        <path d="M54.524,26.716H44.7a1.75,1.75,0,0,0,0,3.5h3.16v13.51a1.75,1.75,0,0,0,3.5,0V30.216h3.16a1.75,1.75,0,0,0,0-3.5Z" fill="#fff8cd"/>
        <path d="M101.49,26.716H91.669a1.75,1.75,0,0,0,0,3.5H94.83v13.51a1.75,1.75,0,0,0,3.5,0V30.216h3.16a1.75,1.75,0,0,0,0-3.5Z" fill="#fff8cd"/>
        <path d="M87.085,33.081a6.372,6.372,0,0,0-6.365-6.365H76.59a1.749,1.749,0,0,0-1.75,1.75v15.26a1.75,1.75,0,0,0,3.5,0V39.447h2.38a6.5,6.5,0,0,0,.756-.049l2.263,5.044a1.75,1.75,0,1,0,3.193-1.432L84.7,38.039A6.354,6.354,0,0,0,87.085,33.081ZM80.72,35.947H78.34V30.216h2.38a2.866,2.866,0,0,1,0,5.731Z" fill="#fff8cd"/>
      </g>
    </g>
    <g>
      <path d="M109,54.942a1.751,1.751,0,0,0,1.75-1.75V19A1.751,1.751,0,0,0,109,17.25H88.191a1.75,1.75,0,0,0,0,3.5H107.25V51.442H20.75V20.75H64.988a1.75,1.75,0,0,0,0-3.5H19A1.751,1.751,0,0,0,17.25,19V53.192A1.751,1.751,0,0,0,19,54.942h2.581V100.57a4.743,4.743,0,0,0-4.331,4.71V109A1.751,1.751,0,0,0,19,110.75H34.016a1.751,1.751,0,0,0,1.75-1.75v-3.72a4.743,4.743,0,0,0-4.331-4.71V54.942H96.564V100.57a4.743,4.743,0,0,0-4.33,4.71V109a1.751,1.751,0,0,0,1.75,1.75H109a1.751,1.751,0,0,0,1.75-1.75v-3.72a4.743,4.743,0,0,0-4.331-4.71V54.942ZM32.266,105.28v1.97H20.75v-1.97A1.253,1.253,0,0,1,22,104.028h9.012A1.253,1.253,0,0,1,32.266,105.28Zm-4.331-4.752H25.081V54.942h2.854Zm79.315,4.752v1.97H95.734v-1.97a1.253,1.253,0,0,1,1.252-1.252H106A1.253,1.253,0,0,1,107.25,105.28Zm-4.331-4.752h-2.855V54.942h2.855Z" fill="#0c2468"/>
      <path d="M74.1,20.75h4.971a1.75,1.75,0,0,0,0-3.5H74.1a1.75,1.75,0,0,0,0,3.5Z" fill="#0c2468"/>
      <g>
        <path d="M65.9,27.873a1.75,1.75,0,0,0-3.293,0L57.12,43.134a1.75,1.75,0,1,0,3.293,1.184l.725-2.014h6.235l.725,2.014a1.75,1.75,0,1,0,3.293-1.184ZM62.4,38.8l1.858-5.168L66.114,38.8Z" fill="#0c2468"/>
        <path d="M32.439,30.216h6.393a1.75,1.75,0,0,0,0-3.5H32.439a5.012,5.012,0,0,0-2.167,9.532L36.224,39.1a1.512,1.512,0,0,1-.654,2.875H29.177a1.75,1.75,0,1,0,0,3.5H35.57a5.012,5.012,0,0,0,2.166-9.532l-5.951-2.853a1.512,1.512,0,0,1,.654-2.875Z" fill="#0c2468"/>
        <path d="M54.524,26.716H44.7a1.75,1.75,0,0,0,0,3.5h3.16v13.51a1.75,1.75,0,0,0,3.5,0V30.216h3.16a1.75,1.75,0,0,0,0-3.5Z" fill="#0c2468"/>
        <path d="M101.49,26.716H91.669a1.75,1.75,0,0,0,0,3.5H94.83v13.51a1.75,1.75,0,0,0,3.5,0V30.216h3.16a1.75,1.75,0,0,0,0-3.5Z" fill="#0c2468"/>
        <path d="M87.085,33.081a6.372,6.372,0,0,0-6.365-6.365H76.59a1.749,1.749,0,0,0-1.75,1.75v15.26a1.75,1.75,0,0,0,3.5,0V39.447h2.38a6.5,6.5,0,0,0,.756-.049l2.263,5.044a1.75,1.75,0,1,0,3.193-1.432L84.7,38.039A6.354,6.354,0,0,0,87.085,33.081ZM80.72,35.947H78.34V30.216h2.38a2.866,2.866,0,0,1,0,5.731Z" fill="#0c2468"/>
      </g>
    </g>
  </g>
</svg>
